<mxfile host="app.diagrams.net" modified="2023-12-09T04:57:31.912Z" agent="Mozilla/5.0 (Windows NT 10.0; Win64; x64) AppleWebKit/537.36 (KHTML, like Gecko) Chrome/120.0.0.0 Safari/537.36" version="22.1.7" etag="M0MZmh3_s5DSkHmymR1d" type="github">
  <diagram name="Page-1" id="wrtS9T2T2azv9OztdqML">
    <mxGraphModel>
      <root>
        <mxCell id="0" />
        <mxCell id="1" parent="0" />
      </root>
    </mxGraphModel>
  </diagram>
</mxfile>
